<?xml version="1.0" encoding="UTF-8" standalone="no"?>
<!-- (c) ammap.com | SVG weather icons -->

<svg
   width="56"
   height="48"
   version="1.1"
   id="svg6"
   sodipodi:docname="clear-night.svg"
   inkscape:version="1.4.2 (ebf0e940d0, 2025-05-08)"
   xmlns:inkscape="http://www.inkscape.org/namespaces/inkscape"
   xmlns:sodipodi="http://sodipodi.sourceforge.net/DTD/sodipodi-0.dtd"
   xmlns="http://www.w3.org/2000/svg"
   xmlns:svg="http://www.w3.org/2000/svg">
  <sodipodi:namedview
     id="namedview6"
     pagecolor="#ffffff"
     bordercolor="#000000"
     borderopacity="0.25"
     inkscape:showpageshadow="2"
     inkscape:pageopacity="0.0"
     inkscape:pagecheckerboard="0"
     inkscape:deskcolor="#d1d1d1"
     inkscape:zoom="16.666667"
     inkscape:cx="28.02"
     inkscape:cy="24"
     inkscape:window-width="1920"
     inkscape:window-height="1011"
     inkscape:window-x="0"
     inkscape:window-y="0"
     inkscape:window-maximized="1"
     inkscape:current-layer="svg6" />
  <defs
     id="defs2">
    <filter
       id="blur"
       x="-0.37974684"
       y="-0.41474654"
       width="1.7594937"
       height="2.1059908">
      <feGaussianBlur
         in="SourceAlpha"
         stdDeviation="3"
         id="feGaussianBlur1" />
      <feOffset
         dx="0"
         dy="4"
         result="offsetblur"
         id="feOffset1" />
      <feComponentTransfer
         id="feComponentTransfer1">
        <feFuncA
           slope="0.05"
           type="linear"
           id="feFuncA1" />
      </feComponentTransfer>
      <feMerge
         id="feMerge2">
        <feMergeNode
           id="feMergeNode1" />
        <feMergeNode
           in="SourceGraphic"
           id="feMergeNode2" />
      </feMerge>
    </filter>
  </defs>
  <g
     transform="translate(1.32,7.7199993)"
     filter="url(#blur)"
     id="g6">
    <g
       transform="matrix(0.8,0,0,0.8,16,4)"
       id="g5">
      <g
         class="am-weather-moon-star-1"
         id="g2">
        <polygon
           points="3.3,1.5 4,2.7 5.2,3.3 4,4 3.3,5.2 2.7,4 1.5,3.3 2.7,2.7 "
           fill="#ffa500"
           stroke-miterlimit="10"
           id="polygon2" />
      </g>
      <g
         class="am-weather-moon-star-2"
         id="g3">
        <polygon
           transform="translate(20,10)"
           points="3.3,1.5 4,2.7 5.2,3.3 4,4 3.3,5.2 2.7,4 1.5,3.3 2.7,2.7 "
           fill="#ffa500"
           stroke-miterlimit="10"
           id="polygon3" />
      </g>
      <g
         class="am-weather-moon"
         id="g4">
        <path
           d="m 14.5,13.2 c 0,-3.7 2,-6.9 5,-8.7 -1.5,-0.9 -3.2,-1.3 -5,-1.3 -5.5,0 -10,4.5 -10,10 0,5.5 4.5,10 10,10 1.8,0 3.5,-0.5 5,-1.3 -3,-1.7 -5,-5 -5,-8.7 z"
           fill="#ffa500"
           stroke="#ffa500"
           stroke-linejoin="round"
           stroke-width="2"
           id="path3" />
      </g>
    </g>
  </g>
</svg>
