<?xml version="1.0" encoding="UTF-8" standalone="no"?>
<!-- (c) ammap.com | SVG weather icons -->

<svg
   width="56"
   height="48"
   version="1.1"
   id="svg24"
   sodipodi:docname="snowy-day.svg"
   inkscape:version="1.4.2 (ebf0e940d0, 2025-05-08)"
   xmlns:inkscape="http://www.inkscape.org/namespaces/inkscape"
   xmlns:sodipodi="http://sodipodi.sourceforge.net/DTD/sodipodi-0.dtd"
   xmlns="http://www.w3.org/2000/svg"
   xmlns:svg="http://www.w3.org/2000/svg">
  <sodipodi:namedview
     id="namedview24"
     pagecolor="#ffffff"
     bordercolor="#000000"
     borderopacity="0.25"
     inkscape:showpageshadow="2"
     inkscape:pageopacity="0.0"
     inkscape:pagecheckerboard="0"
     inkscape:deskcolor="#d1d1d1"
     inkscape:zoom="11.392857"
     inkscape:cx="28"
     inkscape:cy="23.962382"
     inkscape:window-width="1920"
     inkscape:window-height="1011"
     inkscape:window-x="0"
     inkscape:window-y="0"
     inkscape:window-maximized="1"
     inkscape:current-layer="svg24" />
  <defs
     id="defs2">
    <filter
       id="blur"
       x="-0.20654912"
       y="-0.23098592"
       width="1.4030227"
       height="1.5633803">
      <feGaussianBlur
         in="SourceAlpha"
         stdDeviation="3"
         id="feGaussianBlur1" />
      <feOffset
         dx="0"
         dy="4"
         result="offsetblur"
         id="feOffset1" />
      <feComponentTransfer
         id="feComponentTransfer1">
        <feFuncA
           slope="0.05"
           type="linear"
           id="feFuncA1" />
      </feComponentTransfer>
      <feMerge
         id="feMerge2">
        <feMergeNode
           id="feMergeNode1" />
        <feMergeNode
           in="SourceGraphic"
           id="feMergeNode2" />
      </feMerge>
    </filter>
  </defs>
  <g
     transform="translate(20.437775,2.2054869)"
     filter="url(#blur)"
     id="g24">
    <g
       class="am-weather-sun"
       transform="translate(0,16)"
       id="g10">
      <line
         transform="translate(0,9)"
         y2="3"
         stroke="#ffa500"
         stroke-linecap="round"
         stroke-width="2"
         fifll="none"
         id="line2"
         x1="0"
         y1="0"
         x2="0" />
      <g
         transform="rotate(45)"
         id="g3">
        <line
           transform="translate(0,9)"
           y2="3"
           fill="none"
           stroke="#ffa500"
           stroke-linecap="round"
           stroke-width="2"
           id="line3"
           x1="0"
           y1="0"
           x2="0" />
      </g>
      <g
         transform="rotate(90)"
         id="g4">
        <line
           transform="translate(0,9)"
           y2="3"
           fill="none"
           stroke="#ffa500"
           stroke-linecap="round"
           stroke-width="2"
           id="line4"
           x1="0"
           y1="0"
           x2="0" />
      </g>
      <g
         transform="rotate(135)"
         id="g5">
        <line
           transform="translate(0,9)"
           y2="3"
           fill="none"
           stroke="#ffa500"
           stroke-linecap="round"
           stroke-width="2"
           id="line5"
           x1="0"
           y1="0"
           x2="0" />
      </g>
      <g
         transform="scale(-1)"
         id="g6">
        <line
           transform="translate(0,9)"
           y2="3"
           fill="none"
           stroke="#ffa500"
           stroke-linecap="round"
           stroke-width="2"
           id="line6"
           x1="0"
           y1="0"
           x2="0" />
      </g>
      <g
         transform="rotate(-135)"
         id="g7">
        <line
           transform="translate(0,9)"
           y2="3"
           fill="none"
           stroke="#ffa500"
           stroke-linecap="round"
           stroke-width="2"
           id="line7"
           x1="0"
           y1="0"
           x2="0" />
      </g>
      <g
         transform="rotate(-90)"
         id="g8">
        <line
           transform="translate(0,9)"
           y2="3"
           fill="none"
           stroke="#ffa500"
           stroke-linecap="round"
           stroke-width="2"
           id="line8"
           x1="0"
           y1="0"
           x2="0" />
      </g>
      <g
         transform="rotate(-45)"
         id="g9">
        <line
           transform="translate(0,9)"
           y2="3"
           fill="none"
           stroke="#ffa500"
           stroke-linecap="round"
           stroke-width="2"
           id="line9"
           x1="0"
           y1="0"
           x2="0" />
      </g>
      <circle
         r="5"
         fill="#ffa500"
         stroke="#ffa500"
         stroke-width="2"
         id="circle9"
         cx="0"
         cy="0" />
    </g>
    <g
       class="am-weather-cloud-3"
       id="g11">
      <path
         transform="translate(-20,-11)"
         d="m 47.7,35.4 c 0,-4.6 -3.7,-8.2 -8.2,-8.2 -1,0 -1.9,0.2 -2.8,0.5 -0.3,-3.4 -3.1,-6.2 -6.6,-6.2 -3.7,0 -6.7,3 -6.7,6.7 0,0.8 0.2,1.6 0.4,2.3 -0.3,-0.1 -0.7,-0.1 -1,-0.1 -3.7,0 -6.7,3 -6.7,6.7 0,3.6 2.9,6.6 6.5,6.7 h 17.2 c 4.4,-0.5 7.9,-4 7.9,-8.4 z"
         fill="#57a0ee"
         stroke="#ffffff"
         stroke-linejoin="round"
         stroke-width="1.2"
         id="path10" />
    </g>
    <g
       class="am-weather-snow-1"
       id="g15">
      <g
         transform="translate(3,28)"
         fill="none"
         stroke="#57a0ee"
         stroke-linecap="round"
         id="g14">
        <line
           transform="translate(0,9)"
           y1="-2.5"
           y2="2.5"
           stroke-width="1.2"
           id="line11"
           x1="0"
           x2="0" />
        <line
           transform="rotate(45,-10.864,4.5)"
           y1="-2.5"
           y2="2.5"
           id="line12"
           x1="0"
           x2="0" />
        <line
           transform="rotate(90,-4.5,4.5)"
           y1="-2.5"
           y2="2.5"
           id="line13"
           x1="0"
           x2="0" />
        <line
           transform="rotate(135,-1.864,4.5)"
           y1="-2.5"
           y2="2.5"
           id="line14"
           x1="0"
           x2="0" />
      </g>
    </g>
    <g
       class="am-weather-snow-2"
       id="g19">
      <g
         transform="translate(11,28)"
         fill="none"
         stroke="#57a0ee"
         stroke-linecap="round"
         id="g18">
        <line
           transform="translate(0,9)"
           y1="-2.5"
           y2="2.5"
           stroke-width="1.2"
           id="line15"
           x1="0"
           x2="0" />
        <line
           transform="rotate(45,-10.864,4.5)"
           y1="-2.5"
           y2="2.5"
           id="line16"
           x1="0"
           x2="0" />
        <line
           transform="rotate(90,-4.5,4.5)"
           y1="-2.5"
           y2="2.5"
           id="line17"
           x1="0"
           x2="0" />
        <line
           transform="rotate(135,-1.864,4.5)"
           y1="-2.5"
           y2="2.5"
           id="line18"
           x1="0"
           x2="0" />
      </g>
    </g>
    <g
       class="am-weather-snow-3"
       id="g23">
      <g
         transform="translate(20,28)"
         fill="none"
         stroke="#57a0ee"
         stroke-linecap="round"
         id="g22">
        <line
           transform="translate(0,9)"
           y1="-2.5"
           y2="2.5"
           stroke-width="1.2"
           id="line19"
           x1="0"
           x2="0" />
        <line
           transform="rotate(45,-10.864,4.5)"
           y1="-2.5"
           y2="2.5"
           id="line20"
           x1="0"
           x2="0" />
        <line
           transform="rotate(90,-4.5,4.5)"
           y1="-2.5"
           y2="2.5"
           id="line21"
           x1="0"
           x2="0" />
        <line
           transform="rotate(135,-1.864,4.5)"
           y1="-2.5"
           y2="2.5"
           id="line22"
           x1="0"
           x2="0" />
      </g>
    </g>
  </g>
</svg>
